<?xml version="1.0" encoding="UTF-8"?>
<svg width="61px" height="61px" viewBox="0 0 61 61" version="1.1" xmlns="http://www.w3.org/2000/svg" xmlns:xlink="http://www.w3.org/1999/xlink">
    <title>IconeReserver</title>
    <g id="IconeReserver" stroke="none" stroke-width="1" fill="none" fill-rule="evenodd">
        <g id="Group" fill="#FFFFFF" fill-rule="nonzero">
            <path d="M16.4615385,45 L22,45 L22,39.4615385 L16.4615385,39.4615385 L16.4615385,45 Z M23.2307692,45 L29.3846154,45 L29.3846154,39.4615385 L23.2307692,39.4615385 L23.2307692,45 Z M16.4615385,38.2307692 L22,38.2307692 L22,32.0769231 L16.4615385,32.0769231 L16.4615385,38.2307692 Z M23.2307692,38.2307692 L29.3846154,38.2307692 L29.3846154,32.0769231 L23.2307692,32.0769231 L23.2307692,38.2307692 Z M16.4615385,30.8461538 L22,30.8461538 L22,25.3076923 L16.4615385,25.3076923 L16.4615385,30.8461538 Z M30.6153846,45 L36.7692308,45 L36.7692308,39.4615385 L30.6153846,39.4615385 L30.6153846,45 Z M23.2307692,30.8461538 L29.3846154,30.8461538 L29.3846154,25.3076923 L23.2307692,25.3076923 L23.2307692,30.8461538 Z M38,45 L43.5384615,45 L43.5384615,39.4615385 L38,39.4615385 L38,45 Z M30.6153846,38.2307692 L36.7692308,38.2307692 L36.7692308,32.0769231 L30.6153846,32.0769231 L30.6153846,38.2307692 Z M23.8461538,21.6153846 L23.8461538,16.0769231 C23.8461538,15.9102564 23.7852564,15.7660256 23.6634615,15.6442308 C23.5416667,15.5224359 23.3974359,15.4615385 23.2307692,15.4615385 L22,15.4615385 C21.8333333,15.4615385 21.6891026,15.5224359 21.5673077,15.6442308 C21.4455128,15.7660256 21.3846154,15.9102564 21.3846154,16.0769231 L21.3846154,21.6153846 C21.3846154,21.7820513 21.4455128,21.9262821 21.5673077,22.0480769 C21.6891026,22.1698718 21.8333333,22.2307692 22,22.2307692 L23.2307692,22.2307692 C23.3974359,22.2307692 23.5416667,22.1698718 23.6634615,22.0480769 C23.7852564,21.9262821 23.8461538,21.7820513 23.8461538,21.6153846 Z M38,38.2307692 L43.5384615,38.2307692 L43.5384615,32.0769231 L38,32.0769231 L38,38.2307692 Z M30.6153846,30.8461538 L36.7692308,30.8461538 L36.7692308,25.3076923 L30.6153846,25.3076923 L30.6153846,30.8461538 Z M38,30.8461538 L43.5384615,30.8461538 L43.5384615,25.3076923 L38,25.3076923 L38,30.8461538 Z M38.6153846,21.6153846 L38.6153846,16.0769231 C38.6153846,15.9102564 38.5544872,15.7660256 38.4326923,15.6442308 C38.3108974,15.5224359 38.1666667,15.4615385 38,15.4615385 L36.7692308,15.4615385 C36.6025641,15.4615385 36.4583333,15.5224359 36.3365385,15.6442308 C36.2147436,15.7660256 36.1538462,15.9102564 36.1538462,16.0769231 L36.1538462,21.6153846 C36.1538462,21.7820513 36.2147436,21.9262821 36.3365385,22.0480769 C36.4583333,22.1698718 36.6025641,22.2307692 36.7692308,22.2307692 L38,22.2307692 C38.1666667,22.2307692 38.3108974,22.1698718 38.4326923,22.0480769 C38.5544872,21.9262821 38.6153846,21.7820513 38.6153846,21.6153846 Z M46,20.3846154 L46,45 C46,45.6666667 45.7564103,46.2435897 45.2692308,46.7307692 C44.7820513,47.2179487 44.2051282,47.4615385 43.5384615,47.4615385 L16.4615385,47.4615385 C15.7948718,47.4615385 15.2179487,47.2179487 14.7307692,46.7307692 C14.2435897,46.2435897 14,45.6666667 14,45 L14,20.3846154 C14,19.7179487 14.2435897,19.1410256 14.7307692,18.6538462 C15.2179487,18.1666667 15.7948718,17.9230769 16.4615385,17.9230769 L18.9230769,17.9230769 L18.9230769,16.0769231 C18.9230769,15.2307692 19.224359,14.5064103 19.8269231,13.9038462 C20.4294872,13.3012821 21.1538462,13 22,13 L23.2307692,13 C24.0769231,13 24.8012821,13.3012821 25.4038462,13.9038462 C26.0064103,14.5064103 26.3076923,15.2307692 26.3076923,16.0769231 L26.3076923,17.9230769 L33.6923077,17.9230769 L33.6923077,16.0769231 C33.6923077,15.2307692 33.9935897,14.5064103 34.5961538,13.9038462 C35.1987179,13.3012821 35.9230769,13 36.7692308,13 L38,13 C38.8461538,13 39.5705128,13.3012821 40.1730769,13.9038462 C40.775641,14.5064103 41.0769231,15.2307692 41.0769231,16.0769231 L41.0769231,17.9230769 L43.5384615,17.9230769 C44.2051282,17.9230769 44.7820513,18.1666667 45.2692308,18.6538462 C45.7564103,19.1410256 46,19.7179487 46,20.3846154 Z" id="Shape"></path>
        </g>
    </g>
</svg>