<?xml version="1.0" encoding="UTF-8"?>
<svg width="1017px" height="1429px" viewBox="0 0 1017 1429" version="1.1" xmlns="http://www.w3.org/2000/svg" xmlns:xlink="http://www.w3.org/1999/xlink">
    <title>Shape</title>
    <g id="2ème-tour" stroke="none" stroke-width="1" fill="none" fill-rule="evenodd" opacity="0.3">
        <g id="Ecole-de-tennis" transform="translate(0.000000, -124.000000)" fill="#FFFFFF" fill-rule="nonzero">
            <path d="M722.327642,820.236276 L722.327642,237.211254 L-66.5928341,237.211254 L-66.5928341,820.236276 L-104.52351,820.236276 L-104.52351,857.186233 L-66.5928341,857.186233 L-66.5928341,1440.21125 L722.327642,1440.21125 L722.327642,857.186233 L760.258317,857.186233 L760.258317,820.236276 L722.327642,820.236276 Z M83.1382146,274.161211 L572.589547,274.161211 L572.589547,519.319454 L83.1382146,519.319454 L83.1382146,274.161211 Z M83.1382146,819.902631 L83.1382146,556.27176 L309.397631,556.27176 L309.397631,820.236276 L83.1382146,820.236276 L83.1382146,819.902631 Z M83.1382146,857.519877 L83.1382146,857.188582 L309.397631,857.188582 L309.397631,1121.15545 L83.1382146,1121.15545 L83.1382146,857.519877 Z M46.2057146,857.519877 L46.2057146,1158.1054 L46.2057146,1403.266 L-29.6579854,1403.266 L-29.6579854,857.186233 L46.2057146,857.186233 L46.2057146,857.519877 Z M46.2057146,519.319454 L46.2057146,819.904981 L46.2057146,820.238625 L-29.6579854,820.238625 L-29.6579854,274.161211 L46.2057146,274.161211 L46.2057146,519.319454 Z M572.594244,1403.26365 L83.1382146,1403.26365 L83.1382146,1158.10306 L572.594244,1158.10306 L572.594244,1403.26365 L572.594244,1403.26365 Z M572.594244,857.519877 L572.594244,1121.15545 L346.334828,1121.15545 L346.334828,857.186233 L572.594244,857.186233 L572.594244,857.519877 Z M572.594244,819.904981 L572.594244,820.238625 L346.334828,820.238625 L346.334828,820.238625 L346.334828,556.27176 L572.594244,556.27176 L572.594244,819.904981 Z M685.392793,1403.2613 L609.529093,1403.2613 L609.529093,1158.10071 L609.529093,857.519877 L609.529093,857.188582 L685.392793,857.188582 L685.392793,1403.2613 Z M685.392793,820.236276 L609.529093,820.236276 L609.529093,819.902631 L609.529093,519.317104 L609.529093,274.161211 L685.392793,274.161211 L685.392793,820.236276 Z" id="Shape" transform="translate(327.867404, 838.711254) rotate(220.000000) translate(-327.867404, -838.711254) "></path>
        </g>
    </g>
</svg>