<?xml version="1.0" encoding="UTF-8"?>
<svg width="91px" height="20px" viewBox="0 0 91 20" version="1.1" xmlns="http://www.w3.org/2000/svg" xmlns:xlink="http://www.w3.org/1999/xlink">
    <title>LogoTenUp</title>
    <g id="2ème-tour" stroke="none" stroke-width="1" fill="none" fill-rule="evenodd">
        <g id="Mobile----Menu" transform="translate(-142.000000, -517.000000)" fill-rule="nonzero">
            <g id="LogoTenUp" transform="translate(142.000000, 517.000000)">
                <path d="M66.4247748,0 L71.3396396,0 L71.3396396,13.1581081 C71.3396396,15.227027 70.6117117,16.8990991 69.1774775,18.127027 C67.7554054,19.3432432 65.9202703,19.9608108 63.7238739,19.9608108 C61.5274775,19.9608108 59.6918919,19.3436937 58.2698198,18.127027 C56.8342342,16.8990991 56.1076577,15.2274775 56.1076577,13.1581081 L56.1076577,0 L61.0225225,0 L61.0225225,12.7774775 C61.0225225,14.3990991 61.8815315,15.1540541 63.7252252,15.1540541 C65.5689189,15.1540541 66.4279279,14.3990991 66.4279279,12.7774775 L66.4247748,0 Z M89.8671171,6.8018018 C89.8671171,8.68333333 89.1914414,10.304955 87.8545045,11.6216216 C86.5175676,12.9382883 84.8626126,13.6036036 82.9288288,13.6036036 L80.3612613,13.6036036 L80.3612613,19.5806306 L75.4472973,19.5806306 L75.4472973,0 L82.9279279,0 C84.8608108,0 86.518018,0.667117117 87.8536036,1.98198198 C89.1891892,3.29684685 89.8671171,4.92207207 89.8671171,6.8018018 L89.8671171,6.8018018 Z M84.9522523,6.8018018 C84.9522523,6.18243243 84.7635135,5.67567568 84.3761261,5.25720721 C83.9887387,4.83873874 83.5202703,4.64279279 82.9288288,4.64279279 L80.3612613,4.64279279 L80.3612613,8.96396396 L82.9288288,8.96396396 C83.5216216,8.96396396 83.995045,8.76306306 84.3761261,8.34954955 C84.7572072,7.93603604 84.9522523,7.42297297 84.9522523,6.8018018 L84.9522523,6.8018018 Z" id="Shape" fill="#EBFF46"></path>
                <path d="M0,0 L14.6923423,0 L14.6923423,4.7527027 L9.80405405,4.7527027 L9.80405405,19.5806306 L4.88873874,19.5806306 L4.88873874,4.7527027 L0,4.7527027 L0,0 Z M23.0873874,12.0306306 L29.877027,12.0306306 L29.877027,7.33288288 L23.0873874,7.33288288 L23.0873874,4.7527027 L30.5558559,4.7527027 L30.5558559,0 L18.1720721,0 L18.1720721,19.5806306 L30.5509009,19.5806306 L30.5509009,14.8283784 L23.0873874,14.8283784 L23.0873874,12.0306306 Z M52.009009,0 L47.0936937,0 L47.0936937,5.24099099 L52.009009,12.1585586 L52.009009,0 Z M34.6666667,0 L34.6666667,19.5806306 L39.5833333,19.5806306 L39.5833333,9.86846847 L46.4864865,19.5855856 L52.2756757,19.5855856 L38.359009,0 L34.6666667,0 Z" id="Shape" fill="#FFFFFF"></path>
            </g>
        </g>
    </g>
</svg>